<svg xmlns="http://www.w3.org/2000/svg" version="1.1" xmlns:xlink="http://www.w3.org/1999/xlink" xmlns:svgjs="http://svgjs.com/svgjs" width="1440" height="560" preserveAspectRatio="none" viewBox="0 0 1440 560"><g mask="url(&quot;#SvgjsMask1335&quot;)" fill="none"><rect width="1440" height="560" x="0" y="0" fill="url(#SvgjsRadialGradient1336)"></rect><path d="M-108.84 369.68L-108.84 369.68" stroke="#132e65" stroke-width="1.5"></path><path d="M-108.84 369.68L46.54 395.54" stroke="#132e65" stroke-width="1.5"></path><path d="M-108.84 369.68L-44.63 517.14" stroke="#132e65" stroke-width="1.5"></path><path d="M-108.84 369.68L71.19 523.11" stroke="#132e65" stroke-width="1.5"></path><path d="M-108.84 369.68L-37.95 670" stroke="#132e65" stroke-width="1.5"></path><path d="M-108.84 369.68L241.4 341.85" stroke="#132e65" stroke-width="1.5"></path><path d="M-44.63 517.14L-44.63 517.14" stroke="#132e65" stroke-width="1.5"></path><path d="M-44.63 517.14L71.19 523.11" stroke="#132e65" stroke-width="1.5"></path><path d="M-44.63 517.14L46.54 395.54" stroke="#132e65" stroke-width="1.5"></path><path d="M-44.63 517.14L-37.95 670" stroke="#132e65" stroke-width="1.5"></path><path d="M-37.95 670L-37.95 670" stroke="#132e65" stroke-width="1.5"></path><path d="M-37.95 670L104.45 708.52" stroke="#132e65" stroke-width="1.5"></path><path d="M-37.95 670L71.19 523.11" stroke="#132e65" stroke-width="1.5"></path><path d="M46.54 395.54L46.54 395.54" stroke="#132e65" stroke-width="1.5"></path><path d="M46.54 395.54L71.19 523.11" stroke="#132e65" stroke-width="1.5"></path><path d="M46.54 395.54L241.4 341.85" stroke="#132e65" stroke-width="1.5"></path><path d="M46.54 395.54L226.33 519.78" stroke="#132e65" stroke-width="1.5"></path><path d="M46.54 395.54L-37.95 670" stroke="#132e65" stroke-width="1.5"></path><path d="M71.19 523.11L71.19 523.11" stroke="#132e65" stroke-width="1.5"></path><path d="M71.19 523.11L226.33 519.78" stroke="#132e65" stroke-width="1.5"></path><path d="M104.45 708.52L104.45 708.52" stroke="#132e65" stroke-width="1.5"></path><path d="M104.45 708.52L228.73 669.37" stroke="#132e65" stroke-width="1.5"></path><path d="M241.4 341.85L241.4 341.85" stroke="#132e65" stroke-width="1.5"></path><path d="M241.4 341.85L360.05 338.82" stroke="#132e65" stroke-width="1.5"></path><path d="M241.4 341.85L226.33 519.78" stroke="#132e65" stroke-width="1.5"></path><path d="M226.33 519.78L226.33 519.78" stroke="#132e65" stroke-width="1.5"></path><path d="M226.33 519.78L346.05 490.94" stroke="#132e65" stroke-width="1.5"></path><path d="M226.33 519.78L228.73 669.37" stroke="#132e65" stroke-width="1.5"></path><path d="M226.33 519.78L104.45 708.52" stroke="#132e65" stroke-width="1.5"></path><path d="M228.73 669.37L228.73 669.37" stroke="#132e65" stroke-width="1.5"></path><path d="M360.05 338.82L360.05 338.82" stroke="#132e65" stroke-width="1.5"></path><path d="M360.05 338.82L501.4 338.96" stroke="#132e65" stroke-width="1.5"></path><path d="M360.05 338.82L346.05 490.94" stroke="#132e65" stroke-width="1.5"></path><path d="M360.05 338.82L226.33 519.78" stroke="#132e65" stroke-width="1.5"></path><path d="M346.05 490.94L346.05 490.94" stroke="#132e65" stroke-width="1.5"></path><path d="M346.05 490.94L497.32 518.57" stroke="#132e65" stroke-width="1.5"></path><path d="M346.05 490.94L241.4 341.85" stroke="#132e65" stroke-width="1.5"></path><path d="M346.05 490.94L397.57 682.48" stroke="#132e65" stroke-width="1.5"></path><path d="M397.57 682.48L397.57 682.48" stroke="#132e65" stroke-width="1.5"></path><path d="M397.57 682.48L544.77 662.68" stroke="#132e65" stroke-width="1.5"></path><path d="M397.57 682.48L228.73 669.37" stroke="#132e65" stroke-width="1.5"></path><path d="M397.57 682.48L497.32 518.57" stroke="#132e65" stroke-width="1.5"></path><path d="M501.4 338.96L501.4 338.96" stroke="#132e65" stroke-width="1.5"></path><path d="M501.4 338.96L680.62 349.4" stroke="#132e65" stroke-width="1.5"></path><path d="M497.32 518.57L497.32 518.57" stroke="#132e65" stroke-width="1.5"></path><path d="M497.32 518.57L544.77 662.68" stroke="#132e65" stroke-width="1.5"></path><path d="M497.32 518.57L501.4 338.96" stroke="#132e65" stroke-width="1.5"></path><path d="M544.77 662.68L544.77 662.68" stroke="#132e65" stroke-width="1.5"></path><path d="M544.77 662.68L661.96 668.26" stroke="#132e65" stroke-width="1.5"></path><path d="M700.77 247.36L700.77 247.36" stroke="#132e65" stroke-width="1.5"></path><path d="M700.77 247.36L680.62 349.4" stroke="#132e65" stroke-width="1.5"></path><path d="M700.77 247.36L817.99 203.85" stroke="#132e65" stroke-width="1.5"></path><path d="M700.77 247.36L501.4 338.96" stroke="#132e65" stroke-width="1.5"></path><path d="M680.62 349.4L680.62 349.4" stroke="#132e65" stroke-width="1.5"></path><path d="M680.62 349.4L817.99 203.85" stroke="#132e65" stroke-width="1.5"></path><path d="M680.62 349.4L796.7 522.2" stroke="#132e65" stroke-width="1.5"></path><path d="M680.62 349.4L497.32 518.57" stroke="#132e65" stroke-width="1.5"></path><path d="M680.62 349.4L947.57 501.53" stroke="#132e65" stroke-width="1.5"></path><path d="M661.96 668.26L661.96 668.26" stroke="#132e65" stroke-width="1.5"></path><path d="M661.96 668.26L842.88 672.74" stroke="#132e65" stroke-width="1.5"></path><path d="M661.96 668.26L796.7 522.2" stroke="#132e65" stroke-width="1.5"></path><path d="M661.96 668.26L497.32 518.57" stroke="#132e65" stroke-width="1.5"></path><path d="M661.96 668.26L397.57 682.48" stroke="#132e65" stroke-width="1.5"></path><path d="M817.99 203.85L817.99 203.85" stroke="#132e65" stroke-width="1.5"></path><path d="M817.99 203.85L1001.08 248.41" stroke="#132e65" stroke-width="1.5"></path><path d="M817.99 203.85L1010.37 385.93" stroke="#132e65" stroke-width="1.5"></path><path d="M796.7 522.2L796.7 522.2" stroke="#132e65" stroke-width="1.5"></path><path d="M796.7 522.2L947.57 501.53" stroke="#132e65" stroke-width="1.5"></path><path d="M796.7 522.2L842.88 672.74" stroke="#132e65" stroke-width="1.5"></path><path d="M796.7 522.2L1003.16 645.94" stroke="#132e65" stroke-width="1.5"></path><path d="M842.88 672.74L842.88 672.74" stroke="#132e65" stroke-width="1.5"></path><path d="M842.88 672.74L1003.16 645.94" stroke="#132e65" stroke-width="1.5"></path><path d="M842.88 672.74L947.57 501.53" stroke="#132e65" stroke-width="1.5"></path><path d="M948.28 -45.71L948.28 -45.71" stroke="#132e65" stroke-width="1.5"></path><path d="M948.28 -45.71L1104.49 72.59" stroke="#132e65" stroke-width="1.5"></path><path d="M948.28 -45.71L817.99 203.85" stroke="#132e65" stroke-width="1.5"></path><path d="M948.28 -45.71L1001.08 248.41" stroke="#132e65" stroke-width="1.5"></path><path d="M948.28 -45.71L1257.23 -101.65" stroke="#132e65" stroke-width="1.5"></path><path d="M948.28 -45.71L1147.59 203.2" stroke="#132e65" stroke-width="1.5"></path><path d="M948.28 -45.71L1284.25 54.15" stroke="#132e65" stroke-width="1.5"></path><path d="M1001.08 248.41L1001.08 248.41" stroke="#132e65" stroke-width="1.5"></path><path d="M1001.08 248.41L1010.37 385.93" stroke="#132e65" stroke-width="1.5"></path><path d="M1001.08 248.41L1147.59 203.2" stroke="#132e65" stroke-width="1.5"></path><path d="M1001.08 248.41L1150.03 383.58" stroke="#132e65" stroke-width="1.5"></path><path d="M1001.08 248.41L1104.49 72.59" stroke="#132e65" stroke-width="1.5"></path><path d="M1010.37 385.93L1010.37 385.93" stroke="#132e65" stroke-width="1.5"></path><path d="M1010.37 385.93L947.57 501.53" stroke="#132e65" stroke-width="1.5"></path><path d="M1010.37 385.93L1150.03 383.58" stroke="#132e65" stroke-width="1.5"></path><path d="M1010.37 385.93L1149.6 523.56" stroke="#132e65" stroke-width="1.5"></path><path d="M947.57 501.53L947.57 501.53" stroke="#132e65" stroke-width="1.5"></path><path d="M947.57 501.53L1003.16 645.94" stroke="#132e65" stroke-width="1.5"></path><path d="M1003.16 645.94L1003.16 645.94" stroke="#132e65" stroke-width="1.5"></path><path d="M1003.16 645.94L1149.6 523.56" stroke="#132e65" stroke-width="1.5"></path><path d="M1003.16 645.94L1010.37 385.93" stroke="#132e65" stroke-width="1.5"></path><path d="M1003.16 645.94L1285.96 696.89" stroke="#132e65" stroke-width="1.5"></path><path d="M1104.49 72.59L1104.49 72.59" stroke="#132e65" stroke-width="1.5"></path><path d="M1104.49 72.59L1147.59 203.2" stroke="#132e65" stroke-width="1.5"></path><path d="M1104.49 72.59L1284.25 54.15" stroke="#132e65" stroke-width="1.5"></path><path d="M1147.59 203.2L1147.59 203.2" stroke="#132e65" stroke-width="1.5"></path><path d="M1147.59 203.2L1259.79 235.22" stroke="#132e65" stroke-width="1.5"></path><path d="M1150.03 383.58L1150.03 383.58" stroke="#132e65" stroke-width="1.5"></path><path d="M1150.03 383.58L1149.6 523.56" stroke="#132e65" stroke-width="1.5"></path><path d="M1150.03 383.58L1289.16 367.04" stroke="#132e65" stroke-width="1.5"></path><path d="M1150.03 383.58L1147.59 203.2" stroke="#132e65" stroke-width="1.5"></path><path d="M1149.6 523.56L1149.6 523.56" stroke="#132e65" stroke-width="1.5"></path><path d="M1149.6 523.56L1290 506.39" stroke="#132e65" stroke-width="1.5"></path><path d="M1149.6 523.56L947.57 501.53" stroke="#132e65" stroke-width="1.5"></path><path d="M1149.6 523.56L1289.16 367.04" stroke="#132e65" stroke-width="1.5"></path><path d="M1257.23 -101.65L1257.23 -101.65" stroke="#132e65" stroke-width="1.5"></path><path d="M1257.23 -101.65L1284.25 54.15" stroke="#132e65" stroke-width="1.5"></path><path d="M1257.23 -101.65L1424.42 -99.98" stroke="#132e65" stroke-width="1.5"></path><path d="M1257.23 -101.65L1104.49 72.59" stroke="#132e65" stroke-width="1.5"></path><path d="M1257.23 -101.65L1437.69 97.52" stroke="#132e65" stroke-width="1.5"></path><path d="M1257.23 -101.65L1147.59 203.2" stroke="#132e65" stroke-width="1.5"></path><path d="M1284.25 54.15L1284.25 54.15" stroke="#132e65" stroke-width="1.5"></path><path d="M1284.25 54.15L1437.69 97.52" stroke="#132e65" stroke-width="1.5"></path><path d="M1284.25 54.15L1259.79 235.22" stroke="#132e65" stroke-width="1.5"></path><path d="M1284.25 54.15L1147.59 203.2" stroke="#132e65" stroke-width="1.5"></path><path d="M1284.25 54.15L1424.42 -99.98" stroke="#132e65" stroke-width="1.5"></path><path d="M1259.79 235.22L1259.79 235.22" stroke="#132e65" stroke-width="1.5"></path><path d="M1259.79 235.22L1289.16 367.04" stroke="#132e65" stroke-width="1.5"></path><path d="M1289.16 367.04L1289.16 367.04" stroke="#132e65" stroke-width="1.5"></path><path d="M1289.16 367.04L1399.63 353.65" stroke="#132e65" stroke-width="1.5"></path><path d="M1290 506.39L1290 506.39" stroke="#132e65" stroke-width="1.5"></path><path d="M1290 506.39L1289.16 367.04" stroke="#132e65" stroke-width="1.5"></path><path d="M1285.96 696.89L1285.96 696.89" stroke="#132e65" stroke-width="1.5"></path><path d="M1285.96 696.89L1406.78 703.29" stroke="#132e65" stroke-width="1.5"></path><path d="M1285.96 696.89L1290 506.39" stroke="#132e65" stroke-width="1.5"></path><path d="M1424.42 -99.98L1424.42 -99.98" stroke="#132e65" stroke-width="1.5"></path><path d="M1424.42 -99.98L1590.11 -82.25" stroke="#132e65" stroke-width="1.5"></path><path d="M1424.42 -99.98L1437.69 97.52" stroke="#132e65" stroke-width="1.5"></path><path d="M1437.69 97.52L1437.69 97.52" stroke="#132e65" stroke-width="1.5"></path><path d="M1437.69 97.52L1429.19 232.91" stroke="#132e65" stroke-width="1.5"></path><path d="M1437.69 97.52L1609.63 109.07" stroke="#132e65" stroke-width="1.5"></path><path d="M1429.19 232.91L1429.19 232.91" stroke="#132e65" stroke-width="1.5"></path><path d="M1429.19 232.91L1399.63 353.65" stroke="#132e65" stroke-width="1.5"></path><path d="M1399.63 353.65L1399.63 353.65" stroke="#132e65" stroke-width="1.5"></path><path d="M1433.1 518.55L1433.1 518.55" stroke="#132e65" stroke-width="1.5"></path><path d="M1433.1 518.55L1290 506.39" stroke="#132e65" stroke-width="1.5"></path><path d="M1433.1 518.55L1574 555.31" stroke="#132e65" stroke-width="1.5"></path><path d="M1433.1 518.55L1399.63 353.65" stroke="#132e65" stroke-width="1.5"></path><path d="M1433.1 518.55L1406.78 703.29" stroke="#132e65" stroke-width="1.5"></path><path d="M1433.1 518.55L1289.16 367.04" stroke="#132e65" stroke-width="1.5"></path><path d="M1406.78 703.29L1406.78 703.29" stroke="#132e65" stroke-width="1.5"></path><path d="M1590.11 -82.25L1590.11 -82.25" stroke="#132e65" stroke-width="1.5"></path><path d="M1590.11 -82.25L1609.63 109.07" stroke="#132e65" stroke-width="1.5"></path><path d="M1590.11 -82.25L1437.69 97.52" stroke="#132e65" stroke-width="1.5"></path><path d="M1590.11 -82.25L1257.23 -101.65" stroke="#132e65" stroke-width="1.5"></path><path d="M1590.11 -82.25L1284.25 54.15" stroke="#132e65" stroke-width="1.5"></path><path d="M1590.11 -82.25L1566.21 261.73" stroke="#132e65" stroke-width="1.5"></path><path d="M1609.63 109.07L1609.63 109.07" stroke="#132e65" stroke-width="1.5"></path><path d="M1609.63 109.07L1566.21 261.73" stroke="#132e65" stroke-width="1.5"></path><path d="M1609.63 109.07L1429.19 232.91" stroke="#132e65" stroke-width="1.5"></path><path d="M1566.21 261.73L1566.21 261.73" stroke="#132e65" stroke-width="1.5"></path><path d="M1566.21 261.73L1555.06 337.99" stroke="#132e65" stroke-width="1.5"></path><path d="M1566.21 261.73L1429.19 232.91" stroke="#132e65" stroke-width="1.5"></path><path d="M1555.06 337.99L1555.06 337.99" stroke="#132e65" stroke-width="1.5"></path><path d="M1555.06 337.99L1399.63 353.65" stroke="#132e65" stroke-width="1.5"></path><path d="M1555.06 337.99L1429.19 232.91" stroke="#132e65" stroke-width="1.5"></path><path d="M1574 555.31L1574 555.31" stroke="#132e65" stroke-width="1.5"></path><path d="M1574 555.31L1602.65 641.59" stroke="#132e65" stroke-width="1.5"></path><path d="M1574 555.31L1555.06 337.99" stroke="#132e65" stroke-width="1.5"></path><path d="M1574 555.31L1406.78 703.29" stroke="#132e65" stroke-width="1.5"></path><path d="M1574 555.31L1399.63 353.65" stroke="#132e65" stroke-width="1.5"></path><path d="M1602.65 641.59L1602.65 641.59" stroke="#132e65" stroke-width="1.5"></path><path d="M1602.65 641.59L1406.78 703.29" stroke="#132e65" stroke-width="1.5"></path><circle r="5" cx="-108.84" cy="369.68" fill="#132e65"></circle><circle r="5" cx="-44.63" cy="517.14" fill="#132e65"></circle><circle r="5" cx="-37.95" cy="670" fill="#132e65"></circle><circle r="5" cx="46.54" cy="395.54" fill="#132e65"></circle><circle r="5" cx="71.19" cy="523.11" fill="#132e65"></circle><circle r="5" cx="104.45" cy="708.52" fill="#132e65"></circle><circle r="5" cx="241.4" cy="341.85" fill="#132e65"></circle><circle r="5" cx="226.33" cy="519.78" fill="#132e65"></circle><circle r="5" cx="228.73" cy="669.37" fill="#132e65"></circle><circle r="5" cx="360.05" cy="338.82" fill="#132e65"></circle><circle r="5" cx="346.05" cy="490.94" fill="#132e65"></circle><circle r="5" cx="397.57" cy="682.48" fill="#132e65"></circle><circle r="5" cx="501.4" cy="338.96" fill="#132e65"></circle><circle r="5" cx="497.32" cy="518.57" fill="#132e65"></circle><circle r="5" cx="544.77" cy="662.68" fill="#132e65"></circle><circle r="5" cx="700.77" cy="247.36" fill="#132e65"></circle><circle r="5" cx="680.62" cy="349.4" fill="#132e65"></circle><circle r="5" cx="661.96" cy="668.26" fill="#132e65"></circle><circle r="5" cx="817.99" cy="203.85" fill="#132e65"></circle><circle r="5" cx="796.7" cy="522.2" fill="#132e65"></circle><circle r="5" cx="842.88" cy="672.74" fill="#132e65"></circle><circle r="5" cx="948.28" cy="-45.71" fill="#132e65"></circle><circle r="5" cx="1001.08" cy="248.41" fill="#132e65"></circle><circle r="5" cx="1010.37" cy="385.93" fill="#132e65"></circle><circle r="5" cx="947.57" cy="501.53" fill="#132e65"></circle><circle r="5" cx="1003.16" cy="645.94" fill="#132e65"></circle><circle r="5" cx="1104.49" cy="72.59" fill="#132e65"></circle><circle r="5" cx="1147.59" cy="203.2" fill="#132e65"></circle><circle r="5" cx="1150.03" cy="383.58" fill="#132e65"></circle><circle r="5" cx="1149.6" cy="523.56" fill="#132e65"></circle><circle r="5" cx="1257.23" cy="-101.65" fill="#132e65"></circle><circle r="5" cx="1284.25" cy="54.15" fill="#132e65"></circle><circle r="5" cx="1259.79" cy="235.22" fill="#132e65"></circle><circle r="5" cx="1289.16" cy="367.04" fill="#132e65"></circle><circle r="5" cx="1290" cy="506.39" fill="#132e65"></circle><circle r="5" cx="1285.96" cy="696.89" fill="#132e65"></circle><circle r="5" cx="1424.42" cy="-99.98" fill="#132e65"></circle><circle r="5" cx="1437.69" cy="97.52" fill="#132e65"></circle><circle r="5" cx="1429.19" cy="232.91" fill="#132e65"></circle><circle r="5" cx="1399.63" cy="353.65" fill="#132e65"></circle><circle r="5" cx="1433.1" cy="518.55" fill="#132e65"></circle><circle r="5" cx="1406.78" cy="703.29" fill="#132e65"></circle><circle r="5" cx="1590.11" cy="-82.25" fill="#132e65"></circle><circle r="5" cx="1609.63" cy="109.07" fill="#132e65"></circle><circle r="5" cx="1566.21" cy="261.73" fill="#132e65"></circle><circle r="5" cx="1555.06" cy="337.99" fill="#132e65"></circle><circle r="5" cx="1574" cy="555.31" fill="#132e65"></circle><circle r="5" cx="1602.65" cy="641.59" fill="#132e65"></circle><path d="M957.54 514.17L957.54 514.17" stroke="hsl(226.70000000000005, 41.9%, 43.8%)" stroke-width="1.5"></path><path d="M957.54 514.17L960.52 409.55" stroke="hsl(226.70000000000005, 41.9%, 43.8%)" stroke-width="1.5"></path><path d="M957.54 514.17L839.66 541.52" stroke="hsl(226.70000000000005, 41.9%, 43.8%)" stroke-width="1.5"></path><path d="M957.54 514.17L948.52 688.56" stroke="hsl(226.70000000000005, 41.9%, 43.8%)" stroke-width="1.5"></path><path d="M957.54 514.17L1145.5 534.77" stroke="hsl(226.70000000000005, 41.9%, 43.8%)" stroke-width="1.5"></path><path d="M957.54 514.17L1097.55 644.03" stroke="hsl(226.70000000000005, 41.9%, 43.8%)" stroke-width="1.5"></path><path d="M957.54 514.17L833.7 365.93" stroke="hsl(226.70000000000005, 41.9%, 43.8%)" stroke-width="1.5"></path><path d="M1256.62 354.73L1256.62 354.73" stroke="hsl(226.70000000000005, 41.9%, 43.8%)" stroke-width="1.5"></path><path d="M1256.62 354.73L1156.4 343.86" stroke="hsl(226.70000000000005, 41.9%, 43.8%)" stroke-width="1.5"></path><path d="M1256.62 354.73L1268.82 207.81" stroke="hsl(226.70000000000005, 41.9%, 43.8%)" stroke-width="1.5"></path><path d="M1256.62 354.73L1410.3 401.86" stroke="hsl(226.70000000000005, 41.9%, 43.8%)" stroke-width="1.5"></path><path d="M1310.88 531.07L1310.88 531.07" stroke="hsl(226.70000000000005, 41.9%, 43.8%)" stroke-width="1.5"></path><path d="M1310.88 531.07L1389.49 530.31" stroke="hsl(226.70000000000005, 41.9%, 43.8%)" stroke-width="1.5"></path><path d="M1310.88 531.07L1309.47 682.52" stroke="hsl(226.70000000000005, 41.9%, 43.8%)" stroke-width="1.5"></path><path d="M1310.88 531.07L1410.3 401.86" stroke="hsl(226.70000000000005, 41.9%, 43.8%)" stroke-width="1.5"></path><path d="M1310.88 531.07L1145.5 534.77" stroke="hsl(226.70000000000005, 41.9%, 43.8%)" stroke-width="1.5"></path><path d="M1310.88 531.07L1256.62 354.73" stroke="hsl(226.70000000000005, 41.9%, 43.8%)" stroke-width="1.5"></path><path d="M-112.41 525.02L-112.41 525.02" stroke="hsl(226.70000000000005, 41.9%, 43.8%)" stroke-width="1.5"></path><path d="M-112.41 525.02L75.58 539.44" stroke="hsl(226.70000000000005, 41.9%, 43.8%)" stroke-width="1.5"></path><path d="M-112.41 525.02L-56.83 710.62" stroke="hsl(226.70000000000005, 41.9%, 43.8%)" stroke-width="1.5"></path><path d="M-112.41 525.02L91.65 672.19" stroke="hsl(226.70000000000005, 41.9%, 43.8%)" stroke-width="1.5"></path><path d="M-112.41 525.02L215.8 661.2" stroke="hsl(226.70000000000005, 41.9%, 43.8%)" stroke-width="1.5"></path><path d="M-112.41 525.02L252.22 524.99" stroke="hsl(226.70000000000005, 41.9%, 43.8%)" stroke-width="1.5"></path><path d="M-56.83 710.62L-56.83 710.62" stroke="hsl(226.70000000000005, 41.9%, 43.8%)" stroke-width="1.5"></path><path d="M-56.83 710.62L91.65 672.19" stroke="hsl(226.70000000000005, 41.9%, 43.8%)" stroke-width="1.5"></path><path d="M-56.83 710.62L75.58 539.44" stroke="hsl(226.70000000000005, 41.9%, 43.8%)" stroke-width="1.5"></path><path d="M-56.83 710.62L215.8 661.2" stroke="hsl(226.70000000000005, 41.9%, 43.8%)" stroke-width="1.5"></path><path d="M-56.83 710.62L252.22 524.99" stroke="hsl(226.70000000000005, 41.9%, 43.8%)" stroke-width="1.5"></path><path d="M-56.83 710.62L381.89 695.42" stroke="hsl(226.70000000000005, 41.9%, 43.8%)" stroke-width="1.5"></path><path d="M75.58 539.44L75.58 539.44" stroke="hsl(226.70000000000005, 41.9%, 43.8%)" stroke-width="1.5"></path><path d="M75.58 539.44L91.65 672.19" stroke="hsl(226.70000000000005, 41.9%, 43.8%)" stroke-width="1.5"></path><path d="M75.58 539.44L252.22 524.99" stroke="hsl(226.70000000000005, 41.9%, 43.8%)" stroke-width="1.5"></path><path d="M75.58 539.44L215.8 661.2" stroke="hsl(226.70000000000005, 41.9%, 43.8%)" stroke-width="1.5"></path><path d="M75.58 539.44L389.38 535.48" stroke="hsl(226.70000000000005, 41.9%, 43.8%)" stroke-width="1.5"></path><path d="M91.65 672.19L91.65 672.19" stroke="hsl(226.70000000000005, 41.9%, 43.8%)" stroke-width="1.5"></path><path d="M91.65 672.19L215.8 661.2" stroke="hsl(226.70000000000005, 41.9%, 43.8%)" stroke-width="1.5"></path><path d="M252.22 524.99L252.22 524.99" stroke="hsl(226.70000000000005, 41.9%, 43.8%)" stroke-width="1.5"></path><path d="M252.22 524.99L389.38 535.48" stroke="hsl(226.70000000000005, 41.9%, 43.8%)" stroke-width="1.5"></path><path d="M252.22 524.99L215.8 661.2" stroke="hsl(226.70000000000005, 41.9%, 43.8%)" stroke-width="1.5"></path><path d="M252.22 524.99L381.89 695.42" stroke="hsl(226.70000000000005, 41.9%, 43.8%)" stroke-width="1.5"></path><path d="M252.22 524.99L91.65 672.19" stroke="hsl(226.70000000000005, 41.9%, 43.8%)" stroke-width="1.5"></path><path d="M252.22 524.99L493.86 509.19" stroke="hsl(226.70000000000005, 41.9%, 43.8%)" stroke-width="1.5"></path><path d="M215.8 661.2L215.8 661.2" stroke="hsl(226.70000000000005, 41.9%, 43.8%)" stroke-width="1.5"></path><path d="M215.8 661.2L381.89 695.42" stroke="hsl(226.70000000000005, 41.9%, 43.8%)" stroke-width="1.5"></path><path d="M215.8 661.2L389.38 535.48" stroke="hsl(226.70000000000005, 41.9%, 43.8%)" stroke-width="1.5"></path><path d="M389.38 535.48L389.38 535.48" stroke="hsl(226.70000000000005, 41.9%, 43.8%)" stroke-width="1.5"></path><path d="M389.38 535.48L493.86 509.19" stroke="hsl(226.70000000000005, 41.9%, 43.8%)" stroke-width="1.5"></path><path d="M389.38 535.48L381.89 695.42" stroke="hsl(226.70000000000005, 41.9%, 43.8%)" stroke-width="1.5"></path><path d="M389.38 535.48L533.77 675.05" stroke="hsl(226.70000000000005, 41.9%, 43.8%)" stroke-width="1.5"></path><path d="M381.89 695.42L381.89 695.42" stroke="hsl(226.70000000000005, 41.9%, 43.8%)" stroke-width="1.5"></path><path d="M381.89 695.42L533.77 675.05" stroke="hsl(226.70000000000005, 41.9%, 43.8%)" stroke-width="1.5"></path><path d="M381.89 695.42L493.86 509.19" stroke="hsl(226.70000000000005, 41.9%, 43.8%)" stroke-width="1.5"></path><path d="M493.86 509.19L493.86 509.19" stroke="hsl(226.70000000000005, 41.9%, 43.8%)" stroke-width="1.5"></path><path d="M493.86 509.19L533.77 675.05" stroke="hsl(226.70000000000005, 41.9%, 43.8%)" stroke-width="1.5"></path><path d="M533.77 675.05L533.77 675.05" stroke="hsl(226.70000000000005, 41.9%, 43.8%)" stroke-width="1.5"></path><path d="M533.77 675.05L664.83 712.44" stroke="hsl(226.70000000000005, 41.9%, 43.8%)" stroke-width="1.5"></path><path d="M639.62 379.63L639.62 379.63" stroke="hsl(226.70000000000005, 41.9%, 43.8%)" stroke-width="1.5"></path><path d="M639.62 379.63L679.26 533.36" stroke="hsl(226.70000000000005, 41.9%, 43.8%)" stroke-width="1.5"></path><path d="M639.62 379.63L833.7 365.93" stroke="hsl(226.70000000000005, 41.9%, 43.8%)" stroke-width="1.5"></path><path d="M639.62 379.63L493.86 509.19" stroke="hsl(226.70000000000005, 41.9%, 43.8%)" stroke-width="1.5"></path><path d="M639.62 379.63L839.66 541.52" stroke="hsl(226.70000000000005, 41.9%, 43.8%)" stroke-width="1.5"></path><path d="M639.62 379.63L389.38 535.48" stroke="hsl(226.70000000000005, 41.9%, 43.8%)" stroke-width="1.5"></path><path d="M639.62 379.63L533.77 675.05" stroke="hsl(226.70000000000005, 41.9%, 43.8%)" stroke-width="1.5"></path><path d="M679.26 533.36L679.26 533.36" stroke="hsl(226.70000000000005, 41.9%, 43.8%)" stroke-width="1.5"></path><path d="M679.26 533.36L839.66 541.52" stroke="hsl(226.70000000000005, 41.9%, 43.8%)" stroke-width="1.5"></path><path d="M679.26 533.36L664.83 712.44" stroke="hsl(226.70000000000005, 41.9%, 43.8%)" stroke-width="1.5"></path><path d="M679.26 533.36L493.86 509.19" stroke="hsl(226.70000000000005, 41.9%, 43.8%)" stroke-width="1.5"></path><path d="M679.26 533.36L793.82 698.64" stroke="hsl(226.70000000000005, 41.9%, 43.8%)" stroke-width="1.5"></path><path d="M664.83 712.44L664.83 712.44" stroke="hsl(226.70000000000005, 41.9%, 43.8%)" stroke-width="1.5"></path><path d="M664.83 712.44L793.82 698.64" stroke="hsl(226.70000000000005, 41.9%, 43.8%)" stroke-width="1.5"></path><path d="M833.7 365.93L833.7 365.93" stroke="hsl(226.70000000000005, 41.9%, 43.8%)" stroke-width="1.5"></path><path d="M833.7 365.93L960.52 409.55" stroke="hsl(226.70000000000005, 41.9%, 43.8%)" stroke-width="1.5"></path><path d="M833.7 365.93L839.66 541.52" stroke="hsl(226.70000000000005, 41.9%, 43.8%)" stroke-width="1.5"></path><path d="M839.66 541.52L839.66 541.52" stroke="hsl(226.70000000000005, 41.9%, 43.8%)" stroke-width="1.5"></path><path d="M839.66 541.52L793.82 698.64" stroke="hsl(226.70000000000005, 41.9%, 43.8%)" stroke-width="1.5"></path><path d="M839.66 541.52L960.52 409.55" stroke="hsl(226.70000000000005, 41.9%, 43.8%)" stroke-width="1.5"></path><path d="M839.66 541.52L948.52 688.56" stroke="hsl(226.70000000000005, 41.9%, 43.8%)" stroke-width="1.5"></path><path d="M793.82 698.64L793.82 698.64" stroke="hsl(226.70000000000005, 41.9%, 43.8%)" stroke-width="1.5"></path><path d="M793.82 698.64L948.52 688.56" stroke="hsl(226.70000000000005, 41.9%, 43.8%)" stroke-width="1.5"></path><path d="M960.52 409.55L960.52 409.55" stroke="hsl(226.70000000000005, 41.9%, 43.8%)" stroke-width="1.5"></path><path d="M960.52 409.55L1156.4 343.86" stroke="hsl(226.70000000000005, 41.9%, 43.8%)" stroke-width="1.5"></path><path d="M960.52 409.55L1145.5 534.77" stroke="hsl(226.70000000000005, 41.9%, 43.8%)" stroke-width="1.5"></path><path d="M948.52 688.56L948.52 688.56" stroke="hsl(226.70000000000005, 41.9%, 43.8%)" stroke-width="1.5"></path><path d="M948.52 688.56L1097.55 644.03" stroke="hsl(226.70000000000005, 41.9%, 43.8%)" stroke-width="1.5"></path><path d="M1121.83 109.62L1121.83 109.62" stroke="hsl(226.70000000000005, 41.9%, 43.8%)" stroke-width="1.5"></path><path d="M1121.83 109.62L1103.97 225.84" stroke="hsl(226.70000000000005, 41.9%, 43.8%)" stroke-width="1.5"></path><path d="M1121.83 109.62L1246.34 102.66" stroke="hsl(226.70000000000005, 41.9%, 43.8%)" stroke-width="1.5"></path><path d="M1121.83 109.62L1268.82 207.81" stroke="hsl(226.70000000000005, 41.9%, 43.8%)" stroke-width="1.5"></path><path d="M1103.97 225.84L1103.97 225.84" stroke="hsl(226.70000000000005, 41.9%, 43.8%)" stroke-width="1.5"></path><path d="M1103.97 225.84L1156.4 343.86" stroke="hsl(226.70000000000005, 41.9%, 43.8%)" stroke-width="1.5"></path><path d="M1103.97 225.84L1268.82 207.81" stroke="hsl(226.70000000000005, 41.9%, 43.8%)" stroke-width="1.5"></path><path d="M1103.97 225.84L1246.34 102.66" stroke="hsl(226.70000000000005, 41.9%, 43.8%)" stroke-width="1.5"></path><path d="M1103.97 225.84L1256.62 354.73" stroke="hsl(226.70000000000005, 41.9%, 43.8%)" stroke-width="1.5"></path><path d="M1103.97 225.84L960.52 409.55" stroke="hsl(226.70000000000005, 41.9%, 43.8%)" stroke-width="1.5"></path><path d="M1156.4 343.86L1156.4 343.86" stroke="hsl(226.70000000000005, 41.9%, 43.8%)" stroke-width="1.5"></path><path d="M1156.4 343.86L1268.82 207.81" stroke="hsl(226.70000000000005, 41.9%, 43.8%)" stroke-width="1.5"></path><path d="M1156.4 343.86L1145.5 534.77" stroke="hsl(226.70000000000005, 41.9%, 43.8%)" stroke-width="1.5"></path><path d="M1156.4 343.86L1121.83 109.62" stroke="hsl(226.70000000000005, 41.9%, 43.8%)" stroke-width="1.5"></path><path d="M1145.5 534.77L1145.5 534.77" stroke="hsl(226.70000000000005, 41.9%, 43.8%)" stroke-width="1.5"></path><path d="M1145.5 534.77L1097.55 644.03" stroke="hsl(226.70000000000005, 41.9%, 43.8%)" stroke-width="1.5"></path><path d="M1097.55 644.03L1097.55 644.03" stroke="hsl(226.70000000000005, 41.9%, 43.8%)" stroke-width="1.5"></path><path d="M1097.55 644.03L1309.47 682.52" stroke="hsl(226.70000000000005, 41.9%, 43.8%)" stroke-width="1.5"></path><path d="M1097.55 644.03L1310.88 531.07" stroke="hsl(226.70000000000005, 41.9%, 43.8%)" stroke-width="1.5"></path><path d="M1259.54 -88.42L1259.54 -88.42" stroke="hsl(226.70000000000005, 41.9%, 43.8%)" stroke-width="1.5"></path><path d="M1259.54 -88.42L1246.34 102.66" stroke="hsl(226.70000000000005, 41.9%, 43.8%)" stroke-width="1.5"></path><path d="M1259.54 -88.42L1455.79 -55.12" stroke="hsl(226.70000000000005, 41.9%, 43.8%)" stroke-width="1.5"></path><path d="M1259.54 -88.42L1390.13 72.5" stroke="hsl(226.70000000000005, 41.9%, 43.8%)" stroke-width="1.5"></path><path d="M1246.34 102.66L1246.34 102.66" stroke="hsl(226.70000000000005, 41.9%, 43.8%)" stroke-width="1.5"></path><path d="M1246.34 102.66L1268.82 207.81" stroke="hsl(226.70000000000005, 41.9%, 43.8%)" stroke-width="1.5"></path><path d="M1246.34 102.66L1390.13 72.5" stroke="hsl(226.70000000000005, 41.9%, 43.8%)" stroke-width="1.5"></path><path d="M1268.82 207.81L1268.82 207.81" stroke="hsl(226.70000000000005, 41.9%, 43.8%)" stroke-width="1.5"></path><path d="M1309.47 682.52L1309.47 682.52" stroke="hsl(226.70000000000005, 41.9%, 43.8%)" stroke-width="1.5"></path><path d="M1309.47 682.52L1406.21 701.05" stroke="hsl(226.70000000000005, 41.9%, 43.8%)" stroke-width="1.5"></path><path d="M1455.79 -55.12L1455.79 -55.12" stroke="hsl(226.70000000000005, 41.9%, 43.8%)" stroke-width="1.5"></path><path d="M1455.79 -55.12L1589.06 -40.28" stroke="hsl(226.70000000000005, 41.9%, 43.8%)" stroke-width="1.5"></path><path d="M1455.79 -55.12L1390.13 72.5" stroke="hsl(226.70000000000005, 41.9%, 43.8%)" stroke-width="1.5"></path><path d="M1390.13 72.5L1390.13 72.5" stroke="hsl(226.70000000000005, 41.9%, 43.8%)" stroke-width="1.5"></path><path d="M1455.4 204.36L1455.4 204.36" stroke="hsl(226.70000000000005, 41.9%, 43.8%)" stroke-width="1.5"></path><path d="M1455.4 204.36L1566.45 247.5" stroke="hsl(226.70000000000005, 41.9%, 43.8%)" stroke-width="1.5"></path><path d="M1455.4 204.36L1390.13 72.5" stroke="hsl(226.70000000000005, 41.9%, 43.8%)" stroke-width="1.5"></path><path d="M1410.3 401.86L1410.3 401.86" stroke="hsl(226.70000000000005, 41.9%, 43.8%)" stroke-width="1.5"></path><path d="M1410.3 401.86L1389.49 530.31" stroke="hsl(226.70000000000005, 41.9%, 43.8%)" stroke-width="1.5"></path><path d="M1389.49 530.31L1389.49 530.31" stroke="hsl(226.70000000000005, 41.9%, 43.8%)" stroke-width="1.5"></path><path d="M1389.49 530.31L1406.21 701.05" stroke="hsl(226.70000000000005, 41.9%, 43.8%)" stroke-width="1.5"></path><path d="M1389.49 530.31L1309.47 682.52" stroke="hsl(226.70000000000005, 41.9%, 43.8%)" stroke-width="1.5"></path><path d="M1389.49 530.31L1578.76 546.6" stroke="hsl(226.70000000000005, 41.9%, 43.8%)" stroke-width="1.5"></path><path d="M1406.21 701.05L1406.21 701.05" stroke="hsl(226.70000000000005, 41.9%, 43.8%)" stroke-width="1.5"></path><path d="M1406.21 701.05L1586.05 651.82" stroke="hsl(226.70000000000005, 41.9%, 43.8%)" stroke-width="1.5"></path><path d="M1406.21 701.05L1310.88 531.07" stroke="hsl(226.70000000000005, 41.9%, 43.8%)" stroke-width="1.5"></path><path d="M1406.21 701.05L1578.76 546.6" stroke="hsl(226.70000000000005, 41.9%, 43.8%)" stroke-width="1.5"></path><path d="M1589.06 -40.28L1589.06 -40.28" stroke="hsl(226.70000000000005, 41.9%, 43.8%)" stroke-width="1.5"></path><path d="M1589.06 -40.28L1583.17 109.47" stroke="hsl(226.70000000000005, 41.9%, 43.8%)" stroke-width="1.5"></path><path d="M1589.06 -40.28L1390.13 72.5" stroke="hsl(226.70000000000005, 41.9%, 43.8%)" stroke-width="1.5"></path><path d="M1583.17 109.47L1583.17 109.47" stroke="hsl(226.70000000000005, 41.9%, 43.8%)" stroke-width="1.5"></path><path d="M1583.17 109.47L1566.45 247.5" stroke="hsl(226.70000000000005, 41.9%, 43.8%)" stroke-width="1.5"></path><path d="M1566.45 247.5L1566.45 247.5" stroke="hsl(226.70000000000005, 41.9%, 43.8%)" stroke-width="1.5"></path><path d="M1566.45 247.5L1575.63 390.69" stroke="hsl(226.70000000000005, 41.9%, 43.8%)" stroke-width="1.5"></path><path d="M1566.45 247.5L1410.3 401.86" stroke="hsl(226.70000000000005, 41.9%, 43.8%)" stroke-width="1.5"></path><path d="M1566.45 247.5L1390.13 72.5" stroke="hsl(226.70000000000005, 41.9%, 43.8%)" stroke-width="1.5"></path><path d="M1566.45 247.5L1589.06 -40.28" stroke="hsl(226.70000000000005, 41.9%, 43.8%)" stroke-width="1.5"></path><path d="M1575.63 390.69L1575.63 390.69" stroke="hsl(226.70000000000005, 41.9%, 43.8%)" stroke-width="1.5"></path><path d="M1575.63 390.69L1578.76 546.6" stroke="hsl(226.70000000000005, 41.9%, 43.8%)" stroke-width="1.5"></path><path d="M1575.63 390.69L1410.3 401.86" stroke="hsl(226.70000000000005, 41.9%, 43.8%)" stroke-width="1.5"></path><path d="M1575.63 390.69L1455.4 204.36" stroke="hsl(226.70000000000005, 41.9%, 43.8%)" stroke-width="1.5"></path><path d="M1578.76 546.6L1578.76 546.6" stroke="hsl(226.70000000000005, 41.9%, 43.8%)" stroke-width="1.5"></path><path d="M1578.76 546.6L1586.05 651.82" stroke="hsl(226.70000000000005, 41.9%, 43.8%)" stroke-width="1.5"></path><path d="M1578.76 546.6L1410.3 401.86" stroke="hsl(226.70000000000005, 41.9%, 43.8%)" stroke-width="1.5"></path><path d="M1578.76 546.6L1310.88 531.07" stroke="hsl(226.70000000000005, 41.9%, 43.8%)" stroke-width="1.5"></path><path d="M1586.05 651.82L1586.05 651.82" stroke="hsl(226.70000000000005, 41.9%, 43.8%)" stroke-width="1.5"></path><path d="M1586.05 651.82L1389.49 530.31" stroke="hsl(226.70000000000005, 41.9%, 43.8%)" stroke-width="1.5"></path><path d="M1586.05 651.82L1575.63 390.69" stroke="hsl(226.70000000000005, 41.9%, 43.8%)" stroke-width="1.5"></path><path d="M1586.05 651.82L1309.47 682.52" stroke="hsl(226.70000000000005, 41.9%, 43.8%)" stroke-width="1.5"></path><path d="M1586.05 651.82L1310.88 531.07" stroke="hsl(226.70000000000005, 41.9%, 43.8%)" stroke-width="1.5"></path><circle r="25" cx="957.54" cy="514.17" fill="url(#SvgjsRadialGradient1337)"></circle><circle r="25" cx="1256.62" cy="354.73" fill="url(#SvgjsRadialGradient1337)"></circle><circle r="25" cx="1310.88" cy="531.07" fill="url(#SvgjsRadialGradient1337)"></circle><circle r="5" cx="-112.41" cy="525.02" fill="#99a1bd"></circle><circle r="5" cx="-56.83" cy="710.62" fill="#99a1bd"></circle><circle r="5" cx="75.58" cy="539.44" fill="#99a1bd"></circle><circle r="5" cx="91.65" cy="672.19" fill="#99a1bd"></circle><circle r="5" cx="252.22" cy="524.99" fill="#99a1bd"></circle><circle r="5" cx="215.8" cy="661.2" fill="#99a1bd"></circle><circle r="5" cx="389.38" cy="535.48" fill="#99a1bd"></circle><circle r="5" cx="381.89" cy="695.42" fill="#99a1bd"></circle><circle r="5" cx="493.86" cy="509.19" fill="#99a1bd"></circle><circle r="5" cx="533.77" cy="675.05" fill="#99a1bd"></circle><circle r="5" cx="639.62" cy="379.63" fill="#99a1bd"></circle><circle r="5" cx="679.26" cy="533.36" fill="#99a1bd"></circle><circle r="5" cx="664.83" cy="712.44" fill="#99a1bd"></circle><circle r="5" cx="833.7" cy="365.93" fill="#99a1bd"></circle><circle r="5" cx="839.66" cy="541.52" fill="#99a1bd"></circle><circle r="5" cx="793.82" cy="698.64" fill="#99a1bd"></circle><circle r="5" cx="960.52" cy="409.55" fill="#99a1bd"></circle><circle r="5" cx="948.52" cy="688.56" fill="#99a1bd"></circle><circle r="5" cx="1121.83" cy="109.62" fill="#99a1bd"></circle><circle r="5" cx="1103.97" cy="225.84" fill="#99a1bd"></circle><circle r="5" cx="1156.4" cy="343.86" fill="#99a1bd"></circle><circle r="5" cx="1145.5" cy="534.77" fill="#99a1bd"></circle><circle r="5" cx="1097.55" cy="644.03" fill="#99a1bd"></circle><circle r="5" cx="1259.54" cy="-88.42" fill="#99a1bd"></circle><circle r="5" cx="1246.34" cy="102.66" fill="#99a1bd"></circle><circle r="5" cx="1268.82" cy="207.81" fill="#99a1bd"></circle><circle r="5" cx="1309.47" cy="682.52" fill="#99a1bd"></circle><circle r="5" cx="1455.79" cy="-55.12" fill="#99a1bd"></circle><circle r="5" cx="1390.13" cy="72.5" fill="#99a1bd"></circle><circle r="5" cx="1455.4" cy="204.36" fill="#99a1bd"></circle><circle r="5" cx="1410.3" cy="401.86" fill="#99a1bd"></circle><circle r="5" cx="1389.49" cy="530.31" fill="#99a1bd"></circle><circle r="5" cx="1406.21" cy="701.05" fill="#99a1bd"></circle><circle r="5" cx="1589.06" cy="-40.28" fill="#99a1bd"></circle><circle r="5" cx="1583.17" cy="109.47" fill="#99a1bd"></circle><circle r="5" cx="1566.45" cy="247.5" fill="#99a1bd"></circle><circle r="5" cx="1575.63" cy="390.69" fill="#99a1bd"></circle><circle r="5" cx="1578.76" cy="546.6" fill="#99a1bd"></circle><circle r="5" cx="1586.05" cy="651.82" fill="#99a1bd"></circle></g><defs><mask id="SvgjsMask1335"><rect width="1440" height="560" fill="#ffffff"></rect></mask><radialGradient cx="0%" cy="0%" r="1545.06" gradientUnits="userSpaceOnUse" id="SvgjsRadialGradient1336"><stop stop-color="rgba(0, 0, 0, 1)" offset="0.22"></stop><stop stop-color="rgba(0, 0, 0, 1)" offset="0.37"></stop><stop stop-color="rgba(0, 0, 0, 1)" offset="1"></stop></radialGradient><radialGradient id="SvgjsRadialGradient1337"><stop stop-color="#ffffff" offset="0.1"></stop><stop stop-color="rgba(50, 66, 122, 1)" offset="0.2"></stop><stop stop-color="rgba(50, 66, 122, 0)" offset="1"></stop></radialGradient></defs></svg>